<svg id="visual" viewBox="0 0 960 540" width="960" height="540" xmlns="http://www.w3.org/2000/svg" xmlns:xlink="http://www.w3.org/1999/xlink" version="1.1"><rect x="0" y="0" width="960" height="540" fill="#000"></rect><path d="M0 328L16 331.2C32 334.3 64 340.7 96 341.8C128 343 160 339 192 335.2C224 331.3 256 327.7 288 327.7C320 327.7 352 331.3 384 340.8C416 350.3 448 365.7 480 378.5C512 391.3 544 401.7 576 396.7C608 391.7 640 371.3 672 354.3C704 337.3 736 323.7 768 320.5C800 317.3 832 324.7 864 330.5C896 336.3 928 340.7 944 342.8L960 345L960 541L944 541C928 541 896 541 864 541C832 541 800 541 768 541C736 541 704 541 672 541C640 541 608 541 576 541C544 541 512 541 480 541C448 541 416 541 384 541C352 541 320 541 288 541C256 541 224 541 192 541C160 541 128 541 96 541C64 541 32 541 16 541L0 541Z" fill="#3082e5"></path><path d="M0 365L16 365C32 365 64 365 96 374.5C128 384 160 403 192 417C224 431 256 440 288 437.7C320 435.3 352 421.7 384 411.5C416 401.3 448 394.7 480 387C512 379.3 544 370.7 576 374C608 377.3 640 392.7 672 398C704 403.3 736 398.7 768 404.7C800 410.7 832 427.3 864 436.7C896 446 928 448 944 449L960 450L960 541L944 541C928 541 896 541 864 541C832 541 800 541 768 541C736 541 704 541 672 541C640 541 608 541 576 541C544 541 512 541 480 541C448 541 416 541 384 541C352 541 320 541 288 541C256 541 224 541 192 541C160 541 128 541 96 541C64 541 32 541 16 541L0 541Z" fill="#225fbe"></path><path d="M0 443L16 437.3C32 431.7 64 420.3 96 426.7C128 433 160 457 192 465.2C224 473.3 256 465.7 288 460.8C320 456 352 454 384 454.8C416 455.7 448 459.3 480 458.3C512 457.3 544 451.7 576 454.5C608 457.3 640 468.7 672 470.7C704 472.7 736 465.3 768 462.3C800 459.3 832 460.7 864 463.2C896 465.7 928 469.3 944 471.2L960 473L960 541L944 541C928 541 896 541 864 541C832 541 800 541 768 541C736 541 704 541 672 541C640 541 608 541 576 541C544 541 512 541 480 541C448 541 416 541 384 541C352 541 320 541 288 541C256 541 224 541 192 541C160 541 128 541 96 541C64 541 32 541 16 541L0 541Z" fill="#133e96"></path><path d="M0 457L16 459.5C32 462 64 467 96 474.5C128 482 160 492 192 490C224 488 256 474 288 468.7C320 463.3 352 466.7 384 471.3C416 476 448 482 480 489.2C512 496.3 544 504.7 576 505.8C608 507 640 501 672 499.3C704 497.7 736 500.3 768 500.3C800 500.3 832 497.7 864 491.5C896 485.3 928 475.7 944 470.8L960 466L960 541L944 541C928 541 896 541 864 541C832 541 800 541 768 541C736 541 704 541 672 541C640 541 608 541 576 541C544 541 512 541 480 541C448 541 416 541 384 541C352 541 320 541 288 541C256 541 224 541 192 541C160 541 128 541 96 541C64 541 32 541 16 541L0 541Z" fill="#001f70"></path></svg>