<svg id="visual" viewBox="0 0 960 540" width="960" height="540" xmlns="http://www.w3.org/2000/svg" xmlns:xlink="http://www.w3.org/1999/xlink" version="1.1"><rect x="0" y="0" width="960" height="540" fill="#000"></rect><path d="M0 150L16 157.7C32 165.3 64 180.7 96 192.8C128 205 160 214 192 199.3C224 184.7 256 146.3 288 137.8C320 129.3 352 150.7 384 159.7C416 168.7 448 165.3 480 171.3C512 177.3 544 192.7 576 188C608 183.3 640 158.7 672 147.5C704 136.3 736 138.7 768 153.2C800 167.7 832 194.3 864 204.2C896 214 928 207 944 203.5L960 200L960 0L944 0C928 0 896 0 864 0C832 0 800 0 768 0C736 0 704 0 672 0C640 0 608 0 576 0C544 0 512 0 480 0C448 0 416 0 384 0C352 0 320 0 288 0C256 0 224 0 192 0C160 0 128 0 96 0C64 0 32 0 16 0L0 0Z" fill="#fa7268"></path><path d="M0 116L16 123.3C32 130.7 64 145.3 96 146.7C128 148 160 136 192 138.3C224 140.7 256 157.3 288 159.2C320 161 352 148 384 134.7C416 121.3 448 107.7 480 102.8C512 98 544 102 576 109C608 116 640 126 672 136.7C704 147.3 736 158.7 768 164.5C800 170.3 832 170.7 864 155.2C896 139.7 928 108.3 944 92.7L960 77L960 0L944 0C928 0 896 0 864 0C832 0 800 0 768 0C736 0 704 0 672 0C640 0 608 0 576 0C544 0 512 0 480 0C448 0 416 0 384 0C352 0 320 0 288 0C256 0 224 0 192 0C160 0 128 0 96 0C64 0 32 0 16 0L0 0Z" fill="#eb5967"></path><path d="M0 52L16 54C32 56 64 60 96 64.3C128 68.7 160 73.3 192 77.5C224 81.7 256 85.3 288 84.2C320 83 352 77 384 79.3C416 81.7 448 92.3 480 93C512 93.7 544 84.3 576 75.7C608 67 640 59 672 63.3C704 67.7 736 84.3 768 89.7C800 95 832 89 864 92.3C896 95.7 928 108.3 944 114.7L960 121L960 0L944 0C928 0 896 0 864 0C832 0 800 0 768 0C736 0 704 0 672 0C640 0 608 0 576 0C544 0 512 0 480 0C448 0 416 0 384 0C352 0 320 0 288 0C256 0 224 0 192 0C160 0 128 0 96 0C64 0 32 0 16 0L0 0Z" fill="#da3f67"></path><path d="M0 22L16 28.2C32 34.3 64 46.7 96 49.5C128 52.3 160 45.7 192 44.3C224 43 256 47 288 44C320 41 352 31 384 35.2C416 39.3 448 57.7 480 58C512 58.3 544 40.7 576 36.2C608 31.7 640 40.3 672 46.2C704 52 736 55 768 53.2C800 51.3 832 44.7 864 46.3C896 48 928 58 944 63L960 68L960 0L944 0C928 0 896 0 864 0C832 0 800 0 768 0C736 0 704 0 672 0C640 0 608 0 576 0C544 0 512 0 480 0C448 0 416 0 384 0C352 0 320 0 288 0C256 0 224 0 192 0C160 0 128 0 96 0C64 0 32 0 16 0L0 0Z" fill="#c62368"></path></svg>